HIERARCHY
ROOT Hips
{
  OFFSET 0 0 0
  CHANNELS 6 Xposition Yposition Zposition Zrotation Yrotation Xrotation
  JOINT LeftThigh
  {
    OFFSET 8.409438 0 -5.917753
    CHANNELS 3 Zrotation Yrotation Xrotation
    JOINT LeftLeg
    {
      OFFSET 0 0 -42.358652
      CHANNELS 3 Zrotation Yrotation Xrotation
      JOINT LeftFoot
      {
        OFFSET 0 0 -39.357303
        CHANNELS 3 Zrotation Yrotation Xrotation
      }
    }
  }
  JOINT RightThigh
  {
    OFFSET -8.409438 0 -5.917753
    CHANNELS 3 Zrotation Yrotation Xrotation
    JOINT RightLeg
    {
      OFFSET 0 0 -42.358652
      CHANNELS 3 Zrotation Yrotation Xrotation
      JOINT RightFoot
      {
        OFFSET 0 0 -39.357303
        CHANNELS 3 Zrotation Yrotation Xrotation
      }
    }
  }
  JOINT SpineLow
  {
    OFFSET 0 0 4.719101
    CHANNELS 3 Zrotation Yrotation Xrotation
    JOINT SpineMid
    {
      OFFSET 0 0 12.899191
      CHANNELS 3 Zrotation Yrotation Xrotation
      JOINT Chest
      {
        OFFSET 0 0 12.899191
        CHANNELS 3 Zrotation Yrotation Xrotation
        JOINT LeftShoulder
        {
          OFFSET 7.550562 1.41573 9.438202
          CHANNELS 3 Zrotation Yrotation Xrotation
          JOINT LeftArm
          {
            OFFSET 9.155056 0 4.247191
            CHANNELS 3 Zrotation Yrotation Xrotation
            JOINT LeftForearm
            {
              OFFSET 0 0 25.771955
              CHANNELS 3 Zrotation Yrotation Xrotation
              JOINT LeftHand
              {
                OFFSET 0 0 25.197169
                CHANNELS 3 Zrotation Yrotation Xrotation
              }
            }
          }
        }
        JOINT RightShoulder
        {
          OFFSET -7.550562 1.41573 9.438202
          CHANNELS 3 Zrotation Yrotation Xrotation
          JOINT RightArm
          {
            OFFSET -9.155056 0 4.247191
            CHANNELS 3 Zrotation Yrotation Xrotation
            JOINT RightForearm
            {
              OFFSET 0 0 -25.771955
              CHANNELS 3 Zrotation Yrotation Xrotation
              JOINT RightHand
              {
                OFFSET 0 0 -25.197169
                CHANNELS 3 Zrotation Yrotation Xrotation
              }
            }
          }
        }
        JOINT Neck
        {
          OFFSET 0 0 15.101124
          CHANNELS 3 Zrotation Yrotation Xrotation
          JOINT Head
          {
            OFFSET 0 0 11.325843
            CHANNELS 3 Zrotation Yrotation Xrotation
            End Site
            {
              OFFSET 0 0 14.157303
            }
          }
        }
      }
    }
  }
}
MOTION
Frames: 7
Frame Time: 0.0
0.0  89.887642  0.0  2.670857  -10.871113  -89.706658  -0.180268  -16.282518  -17.449843  -2.217584  19.416493  36.227421  -0.010786  -0.463791  -0.090002  -17.17182  14.281738  -23.872702  -4.578277  8.24921  30.87794  5.008707  1.257198  -1.086993  -0.732447  0.188525  1.026708  -1.993694  0.546242  2.800457  -1.993694  0.546242  2.800457  -19.701846  23.4162  3.643416  -165.270532  53.177804  -140.386999  2.742896  -6.263181  27.595231  95.381243  3.282141  -5.007056  -12.532918  2.450597  19.041206  54.191121  13.321892  46.673627  32.733904  -30.235812  -113.24793  67.358471  9.000278  -19.026293  -4.998006  0.477405  -1.329454  -3.747465  0.368958  -0.993259  
0.0  89.887642  0.0  2.695367  -10.705428  -89.66253  0.210945  -16.466381  -17.125556  -2.757957  19.730549  35.678772  -0.090059  -0.438988  -0.073938  -16.789854  14.556941  -23.743752  -4.673285  8.170806  30.808356  4.682635  1.13361  -1.010953  -0.76061  0.160296  1.040097  -2.071749  0.470715  2.837681  -2.071749  0.470715  2.83768  -19.582853  23.485776  3.541335  -165.287633  53.294217  -140.291136  3.25138  -6.017847  27.748938  95.289143  3.344351  -5.07729  -12.633214  2.571481  19.005195  54.428985  13.238033  46.649202  32.557511  -30.195349  -113.13506  67.261326  8.372472  -18.916755  -4.869875  0.785817  -1.067632  -3.650989  0.597917  -0.79451  
0.0  89.887642  0.0  2.747058  -10.593311  -89.495748  0.217387  -16.418561  -17.284109  -2.866485  19.714073  35.538088  -0.081113  -0.364799  0.014176  -16.647017  14.716529  -23.850167  -4.828161  8.079508  30.767616  4.531674  1.071514  -0.942078  -0.804998  0.148024  1.00814  -2.193803  0.438025  2.750408  -2.193803  0.438025  2.750408  -19.435465  23.51574  3.504595  -166.051161  53.402505  -140.864164  2.95352  -6.112093  27.813116  95.2762  3.343018  -4.95128  -12.44031  2.682539  19.086845  54.715636  13.227238  46.67125  32.369409  -30.097277  -113.020391  67.061013  7.822165  -18.819177  -4.648311  1.023066  -0.572145  -3.485187  0.771705  -0.421343  
0.0  89.887642  0.0  2.909665  -10.501477  -89.463706  0.432737  -16.174861  -17.248806  -3.355384  19.718839  35.157542  -0.176789  -0.320054  0.058797  -16.613663  14.968607  -23.955934  -4.83465  7.953838  30.797277  4.347905  0.98739  -0.882426  -0.817426  0.158806  0.995847  -2.227413  0.467591  2.716365  -2.227413  0.467591  2.716366  -19.049378  23.664312  3.606197  -167.346761  53.575224  -141.465319  2.432605  -6.375577  27.809132  95.33766  3.34465  -4.894607  -12.362178  2.732915  19.11444  54.701615  13.274072  46.525403  32.329447  -29.985612  -112.807224  66.889943  7.40976  -18.823978  -4.559621  1.208474  0.033955  -3.419656  0.906162  0.034485  
0.0  89.887642  0.0  3.006764  -10.453287  -89.581916  0.659848  -15.924652  -17.090201  -3.756398  19.644125  34.904931  -0.196019  -0.268151  0.152395  -16.848057  15.075684  -24.030172  -4.534845  7.82993  30.863521  4.227263  0.950966  -0.813579  -0.821633  0.169484  1.009634  -2.238367  0.497406  2.753657  -2.238367  0.497406  2.753657  -18.993512  23.620614  3.565465  -167.9135  53.54579  -141.741468  2.12352  -6.570132  27.819495  95.40761  3.355298  -4.939753  -12.271864  2.724685  19.066091  54.859727  13.341048  46.553642  32.383693  -30.016035  -112.802346  66.873873  7.3459  -18.814288  -4.467189  1.365531  0.730294  -3.351871  1.018877  0.557713  
0.0  89.887642  0.0  3.053494  -10.458721  -89.726152  0.858885  -15.725983  -16.968069  -4.316849  19.606462  34.572991  0.022489  -0.133196  0.369028  -17.153464  15.092197  -24.115368  -3.992715  7.670481  31.011865  4.053859  0.906345  -0.78409  -0.807403  0.171764  1.018865  -2.199308  0.503352  2.778923  -2.199308  0.503352  2.778923  -18.726866  23.711648  3.61282  -167.997492  53.507197  -141.538075  2.067081  -6.528323  27.934945  95.678778  3.385351  -5.096513  -12.226761  2.746405  19.057296  55.087685  13.39477  46.624279  32.33938  -30.194476  -113.069863  66.99031  7.367419  -18.810278  -4.382247  1.535751  1.536513  -3.290375  1.140874  1.163402  
0.0  89.887642  0.0  3.072416  -10.422974  -89.789339  1.027272  -15.624908  -16.870643  -4.558921  19.547393  34.434853  -0.009258  -0.095865  0.478851  -17.665676  15.009181  -24.279399  -3.560861  7.602908  31.083536  4.024545  0.895512  -0.759789  -0.802998  0.170085  1.014574  -2.187374  0.498438  2.767287  -2.187374  0.498438  2.767286  -18.60438  23.705836  3.554623  -167.6318  53.343026  -141.085212  2.1795  -6.423118  27.975434  95.888677  3.359248  -5.216649  -12.172233  2.734372  18.999902  55.118529  13.477425  46.636286  32.492711  -30.310778  -113.088579  67.116682  7.517654  -18.88743  -4.303832  1.73147  2.337681  -3.234309  1.282239  1.765428  
